<svg id="Icon" xmlns="http://www.w3.org/2000/svg" viewBox="0 0 512 512"><defs><style>.cls-1{fill:#13293a;}</style></defs><title>icon</title><circle class="cls-1" cx="358" cy="310" r="36"/><path class="cls-1" d="M268,236c0-7.5,8.25-16,16-16h52a8,8,0,0,0,8-8h0a8,8,0,0,0-8-8H284c-15.75,0-32,16-32,32v52a8,8,0,0,0,8,8h0a8,8,0,0,0,8-8V236Z"/><path class="cls-1" d="M432,220c7.5,0,16,8.25,16,16v52a8,8,0,0,0,8,8h0a8,8,0,0,0,8-8V236c0-15.75-16-32-32-32H380a8,8,0,0,0-8,8h0a8,8,0,0,0,8,8h52Z"/><path class="cls-1" d="M448,384c0,7.5-8.25,16-16,16H380a8,8,0,0,0-8,8h0a8,8,0,0,0,8,8h52c15.75,0,32-16,32-32V332a8,8,0,0,0-8-8h0a8,8,0,0,0-8,8v52Z"/><path class="cls-1" d="M284,400c-7.5,0-16-8.25-16-16V332a8,8,0,0,0-8-8h0a8,8,0,0,0-8,8v52c0,15.75,16,32,32,32h52a8,8,0,0,0,8-8h0a8,8,0,0,0-8-8H284Z"/><path class="cls-1" d="M488,156H228a24,24,0,0,0-24,24V440a24,24,0,0,0,24,24H488a24,24,0,0,0,24-24V180A24,24,0,0,0,488,156Zm8,284a8,8,0,0,1-8,8H228a8,8,0,0,1-8-8V180a8,8,0,0,1,8-8H488a8,8,0,0,1,8,8V440Z"/><path class="cls-1" d="M464,72a24,24,0,0,0-24-24H24A24,24,0,0,0,0,72V392a24,24,0,0,0,24,24H204V400H24a8,8,0,0,1-8-8V72a8,8,0,0,1,8-8H440a8,8,0,0,1,8,8v84h16V72Z"/><rect class="cls-1" x="16" y="176" width="204" height="16"/><rect class="cls-1" x="16" y="256" width="188" height="16"/><rect class="cls-1" x="16" y="336" width="188" height="16"/><rect class="cls-1" x="48" y="112" width="108" height="16" rx="8" ry="8"/><rect class="cls-1" x="152" y="112" width="56" height="16" rx="8" ry="8" transform="translate(300 -60) rotate(90)"/><rect class="cls-1" x="48" y="216" width="64" height="16" rx="8" ry="8"/><path class="cls-1" d="M204,312H56a8,8,0,0,1-8-8h0a8,8,0,0,1,8-8H204v16Z"/></svg>